<?xml version="1.0" encoding="UTF-8"?>
<svg viewBox="0 0 216.335 216.735" xmlns="http://www.w3.org/2000/svg">
 <defs>
  <radialGradient id="b" cx="168.14" cy="644.84" r="103.08" gradientUnits="userSpaceOnUse">
   <stop stop-color="#fff" offset="0"/>
   <stop stop-color="#d6d6d6" offset="1"/>
  </radialGradient>
  <radialGradient id="a" cx="168.38" cy="644.01" r="81.016" gradientUnits="userSpaceOnUse">
   <stop stop-color="#fff" offset="0"/>
   <stop stop-color="#1e1e1e" offset="1"/>
  </radialGradient>
 </defs>
 <g transform="translate(-60.012 -536.51)">
  <path d="m168.18 536.84c59.554 0 107.83 48.368 107.83 108.03 0 59.665-48.279 108.03-107.83 108.03-59.555 0-107.83-48.368-107.83-108.03s48.279-108.03 107.83-108.03z" fill="none" stroke="#196480" stroke-dasharray="1.6,1.6" stroke-width=".66667"/>
  <path d="m168.14 542.18c56.702 0 102.67 45.965 102.67 102.67s-45.965 102.67-102.67 102.67-102.67-45.965-102.67-102.67 45.965-102.67 102.67-102.67z" fill="url(#b)" fill-rule="evenodd" stroke="#196480" stroke-width="2"/>
  <path d="m168.38 563.32c44.565 0 80.692 36.127 80.692 80.692s-36.127 80.692-80.692 80.692c-44.566 0-80.692-36.127-80.692-80.692s36.126-80.692 80.692-80.692z" fill="url(#a)" fill-rule="evenodd" stroke="#196480" stroke-width="2"/>
  <path d="m169.28 544.78 1.469 4.036 3.131-1.05-1.055 3.118 4.055 1.462-4.055 1.463 1.055 3.117-3.131-1.049-1.469 4.036-1.47-4.036-3.13 1.049 1.054-3.117-4.054-1.463 4.054-1.462-1.054-3.118 3.13 1.05z" fill-rule="evenodd"/>
  <path d="m260.78 637.51 1.462 4.036 3.118-1.049-1.05 3.117 4.036 1.463-4.036 1.462 1.05 3.118-3.118-1.05-1.462 4.036-1.463-4.036-3.117 1.05 1.049-3.118-4.036-1.462 4.036-1.463-1.049-3.117 3.117 1.049z" fill-rule="evenodd"/>
  <path d="m256.28 610.24 1.469 4.036 3.131-1.049-1.055 3.117 4.055 1.463-4.055 1.463 1.055 3.117-3.131-1.049-1.469 4.036-1.47-4.036-3.13 1.049 1.054-3.117-4.054-1.463 4.054-1.463-1.054-3.117 3.13 1.049z" fill-rule="evenodd"/>
  <path d="m199.31 550.51 1.463 4.036 3.117-1.049-1.049 3.117 4.036 1.463-4.036 1.462 1.049 3.118-3.117-1.05-1.463 4.036-1.463-4.036-3.117 1.05 1.049-3.118-4.036-1.462 4.036-1.463-1.049-3.117 3.117 1.049z" fill-rule="evenodd"/>
  <path d="m225.34 564.31 1.47 4.036 3.13-1.049-1.054 3.117 4.054 1.463-4.054 1.462 1.054 3.118-3.13-1.05-1.47 4.036-1.469-4.036-3.131 1.05 1.055-3.118-4.055-1.462 4.055-1.463-1.055-3.117 3.131 1.049z" fill-rule="evenodd"/>
  <path d="m243.64 583.84 1.463 4.055 3.117-1.055-1.049 3.131 4.036 1.469-4.036 1.47 1.049 3.13-3.117-1.054-1.463 4.054-1.462-4.054-3.118 1.054 1.05-3.13-4.036-1.47 4.036-1.469-1.05-3.131 3.118 1.055z" fill-rule="evenodd"/>
  <path d="m75.512 637.64-1.4627 4.036-3.1173-1.049 1.0493 3.117-4.036 1.463 4.036 1.463-1.0493 3.117 3.1173-1.049 1.4627 4.036 1.4627-4.036 3.1173 1.049-1.0493-3.117 4.036-1.463-4.036-1.463 1.0493-3.117-3.1173 1.049z" fill-rule="evenodd"/>
  <path d="m80.012 610.38-1.4693 4.036-3.1307-1.05 1.0547 3.118-4.0547 1.462 4.0547 1.463-1.0547 3.117 3.1307-1.049 1.4693 4.036 1.4693-4.036 3.1307 1.049-1.0547-3.117 4.0547-1.463-4.0547-1.462 1.0547-3.118-3.1307 1.05z" fill-rule="evenodd"/>
  <path d="m136.98 550.64-1.463 4.036-3.117-1.049 1.049 3.117-4.036 1.463 4.036 1.463-1.049 3.117 3.117-1.049 1.463 4.036 1.462-4.036 3.118 1.049-1.05-3.117 4.036-1.463-4.036-1.463 1.05-3.117-3.118 1.049z" fill-rule="evenodd"/>
  <path d="m110.94 564.44-1.469 4.036-3.131-1.049 1.055 3.117-4.055 1.463 4.055 1.463-1.055 3.117 3.131-1.049 1.469 4.036 1.47-4.036 3.13 1.049-1.054-3.117 4.054-1.463-4.054-1.463 1.054-3.117-3.13 1.049z" fill-rule="evenodd"/>
  <path d="m92.645 583.98-1.4626 4.036-3.1174-1.05 1.0494 3.118-4.036 1.462 4.036 1.463-1.0494 3.117 3.1174-1.049 1.4626 4.036 1.4627-4.036 3.1173 1.049-1.0493-3.117 4.036-1.463-4.036-1.462 1.0493-3.118-3.1173 1.05z" fill-rule="evenodd"/>
  <path d="m80.012 679.31-1.4693-4.036-3.1307 1.049 1.0547-3.117-4.0547-1.463 4.0547-1.462-1.0547-3.118 3.1307 1.05 1.4693-4.036 1.4693 4.036 3.1307-1.05-1.0547 3.118 4.0547 1.462-4.0547 1.463 1.0547 3.117-3.1307-1.049z" fill-rule="evenodd"/>
  <path d="m136.98 739.04-1.463-4.036-3.117 1.05 1.049-3.118-4.036-1.462 4.036-1.463-1.049-3.117 3.117 1.049 1.463-4.036 1.462 4.036 3.118-1.049-1.05 3.117 4.036 1.463-4.036 1.462 1.05 3.118-3.118-1.05z" fill-rule="evenodd"/>
  <path d="m110.94 725.31-1.469-4.055-3.131 1.055 1.055-3.131-4.055-1.469 4.055-1.469-1.055-3.131 3.131 1.055 1.469-4.055 1.47 4.055 3.13-1.055-1.054 3.131 4.054 1.469-4.054 1.469 1.054 3.131-3.13-1.055z" fill-rule="evenodd"/>
  <path d="m92.645 705.71-1.4626-4.036-3.1174 1.049 1.0494-3.117-4.036-1.463 4.036-1.462-1.0494-3.118 3.1174 1.05 1.4626-4.036 1.4627 4.036 3.1173-1.05-1.0493 3.118 4.036 1.462-4.036 1.463 1.0493 3.117-3.1173-1.049z" fill-rule="evenodd"/>
  <path d="m169.28 744.91 1.469-4.036 3.131 1.049-1.055-3.117 4.055-1.463-4.055-1.462 1.055-3.118-3.131 1.05-1.469-4.036-1.47 4.036-3.13-1.05 1.054 3.118-4.054 1.462 4.054 1.463-1.054 3.117 3.13-1.049z" fill-rule="evenodd"/>
  <path d="m256.28 679.44 1.469-4.036 3.131 1.05-1.055-3.118 4.055-1.462-4.055-1.463 1.055-3.117-3.131 1.049-1.469-4.036-1.47 4.036-3.13-1.049 1.054 3.117-4.054 1.463 4.054 1.462-1.054 3.118 3.13-1.05z" fill-rule="evenodd"/>
  <path d="m199.31 739.18 1.463-4.036 3.117 1.049-1.049-3.117 4.036-1.463-4.036-1.463 1.049-3.117-3.117 1.049-1.463-4.036-1.463 4.036-3.117-1.049 1.049 3.117-4.036 1.463 4.036 1.463-1.049 3.117 3.117-1.049z" fill-rule="evenodd"/>
  <path d="m225.34 725.38 1.47-4.036 3.13 1.049-1.054-3.117 4.054-1.463-4.054-1.463 1.054-3.117-3.13 1.049-1.47-4.036-1.469 4.036-3.131-1.049 1.055 3.117-4.055 1.463 4.055 1.463-1.055 3.117 3.131-1.049z" fill-rule="evenodd"/>
  <path d="m243.64 705.84 1.463-4.036 3.117 1.05-1.049-3.118 4.036-1.462-4.036-1.463 1.049-3.117-3.117 1.049-1.463-4.036-1.462 4.036-3.118-1.049 1.05 3.117-4.036 1.463 4.036 1.462-1.05 3.118 3.118-1.05z" fill-rule="evenodd"/>
  <path d="m169 627.34c36.892 0 66.799 8.052 66.799 17.984s-29.907 17.984-66.799 17.984-66.799-8.052-66.799-17.984 29.907-17.984 66.799-17.984z" fill="none" stroke="#000" stroke-width="2.6667"/>
  <path d="m169 632.47c7.378 0 13.36 5.982 13.36 13.36s-5.982 13.36-13.36 13.36-13.36-5.981-13.36-13.36 5.981-13.36 13.36-13.36z" fill-rule="evenodd" stroke="#000" stroke-width="2.6667"/>
  <path d="m153.42 636.33c18.446-31.951 40.374-53.825 48.975-48.859s0.62 34.892-17.825 66.842-40.374 53.825-48.975 48.858c-8.601-4.965-0.621-34.892 17.825-66.841z" fill="none" stroke="#000" stroke-width="2.6667"/>
  <path d="m153.42 654.31c-18.445-31.95-26.426-61.876-17.825-66.842s30.529 16.908 48.975 48.859 26.426 61.876 17.825 66.841-30.528-16.908-48.975-48.858z" fill="none" stroke="#000" stroke-width="2.6667"/>
  <path d="m123.9 650.58c4.486 0 8.124 3.638 8.124 8.124s-3.638 8.124-8.124 8.124-8.124-3.637-8.124-8.124 3.637-8.124 8.124-8.124z" fill-rule="evenodd"/>
  <path d="m123.9 652.44c2.179 0 3.946 1.142 3.946 2.552s-1.767 2.552-3.946 2.552-3.945-1.143-3.945-2.552 1.767-2.552 3.945-2.552z" fill="#fff" fill-rule="evenodd" stroke="#000" stroke-width="1.3333"/>
  <path d="m182.2 685.94c4.487 0 8.124 3.637 8.124 8.124s-3.637 8.124-8.124 8.124-8.124-3.637-8.124-8.124 3.638-8.124 8.124-8.124z" fill-rule="evenodd"/>
  <path d="m182.2 687.8c2.179 0 3.945 1.143 3.945 2.552s-1.766 2.552-3.945 2.552-3.945-1.142-3.945-2.552 1.766-2.552 3.945-2.552z" fill="#fff" fill-rule="evenodd" stroke="#000" stroke-width="1.3333"/>
  <path d="m205.14 600.88c4.487 0 8.124 3.638 8.124 8.124s-3.637 8.124-8.124 8.124-8.124-3.637-8.124-8.124 3.637-8.124 8.124-8.124z" fill-rule="evenodd"/>
  <path d="m205.14 602.74c2.178 0 3.945 1.142 3.945 2.552s-1.767 2.552-3.945 2.552-3.946-1.143-3.946-2.552 1.767-2.552 3.946-2.552z" fill="#fff" fill-rule="evenodd" stroke="#000" stroke-width="1.3333"/>
  <path d="m168.52 634.33c4.223 0 7.647 1.712 7.647 3.823s-3.424 3.822-7.647 3.822-7.647-1.712-7.647-3.822 3.424-3.823 7.647-3.823z" fill="#fff" fill-rule="evenodd" stroke="#000" stroke-width="1.3333"/>
 </g>
</svg>
